<?xml version="1.0" encoding="UTF-8"?>
<svg width="141px" height="119px" viewBox="0 0 141 119" version="1.1" xmlns="http://www.w3.org/2000/svg" xmlns:xlink="http://www.w3.org/1999/xlink">
    <title>49A4C94B-DC3B-4A99-9FDA-3B1E2F6F5332</title>
    <g id="DAppNode-DAO" stroke="none" stroke-width="1" fill="none" fill-rule="evenodd">
        <g id="DAPPNode-DAO-Desktop-1280px---∞" transform="translate(-190.000000, -4746.000000)">
            <g id="About-DAO" transform="translate(-352.000000, 4163.000000)">
                <g id="Group-70" transform="translate(543.000000, 584.000000)">
                    <path d="M79.8799368,64.5947558 C79.8799368,86.6896497 62.0482414,104.601605 40.0523506,104.601605 C18.0564598,104.601605 0.224764368,86.6896497 0.224764368,64.5947558 C0.224764368,42.499862 18.0564598,24.5879065 40.0523506,24.5879065 C62.0482414,24.5879065 79.8799368,42.499862 79.8799368,64.5947558" id="Fill-42" fill="#DAF2F9"></path>
                    <path d="M79.8799368,64.5947558 C79.8799368,86.6896497 62.0482414,104.601605 40.0523506,104.601605 C18.0564598,104.601605 0.224764368,86.6896497 0.224764368,64.5947558 C0.224764368,42.499862 18.0564598,24.5879065 40.0523506,24.5879065 C62.0482414,24.5879065 79.8799368,42.499862 79.8799368,64.5947558 Z" id="Stroke-44" stroke="#231F20" stroke-linecap="round" stroke-linejoin="round"></path>
                    <path d="M73.2420057,64.5947558 C73.2420057,83.0067969 58.3841034,97.9337969 40.0523506,97.9337969 C21.7228103,97.9337969 6.8626954,83.0067969 6.8626954,64.5947558 C6.8626954,46.1827147 21.7228103,31.2557147 40.0523506,31.2557147 C58.3841034,31.2557147 73.2420057,46.1827147 73.2420057,64.5947558 Z" id="Stroke-46" stroke="#231F20" stroke-linecap="round" stroke-linejoin="round"></path>
                    <path d="M103.952172,78.1441866 C103.102517,78.1441866 102.252862,77.8196866 101.604557,77.168464 L90.6519713,66.1665805 C89.3553621,64.8641353 89.3553621,62.7548853 90.6519713,61.4524401 C91.9485805,60.1499949 94.0483793,60.1499949 95.3449885,61.4524401 L103.952172,70.0961421 L121.943178,52.0219366 C123.239787,50.7194914 125.341799,50.7194914 126.636195,52.0219366 C127.932805,53.3243818 127.932805,55.4358545 126.636195,56.7360771 L106.299787,77.168464 C105.651483,77.8196866 104.801828,78.1441866 103.952172,78.1441866" id="Fill-48" fill="#FFFFFF"></path>
                    <path d="M103.952172,78.1441866 C103.102517,78.1441866 102.252862,77.8196866 101.604557,77.168464 L90.6519713,66.1665805 C89.3553621,64.8641353 89.3553621,62.7548853 90.6519713,61.4524401 C91.9485805,60.1499949 94.0483793,60.1499949 95.3449885,61.4524401 L103.952172,70.0961421 L121.943178,52.0219366 C123.239787,50.7194914 125.341799,50.7194914 126.636195,52.0219366 C127.932805,53.3243818 127.932805,55.4358545 126.636195,56.7360771 L106.299787,77.168464 C105.651483,77.8196866 104.801828,78.1441866 103.952172,78.1441866 Z" id="Stroke-50" stroke="#231F20" stroke-linecap="round" stroke-linejoin="round"></path>
                    <path d="M61.0724655,9.02968733 L64.7432414,7.80058801 C66.6107126,7.17603664 68.0776954,5.70245103 68.6994483,3.82435171 L69.9230402,0.13927637 L71.1466322,3.82435171 C71.7683851,5.70245103 73.2353678,7.17603664 75.1050517,7.80058801 L78.7736149,9.02968733 L75.1050517,10.2587866 C73.2353678,10.883338 71.7683851,12.3569236 71.1466322,14.2350229 L69.9230402,17.9200983 L68.6994483,14.2350229 C68.0776954,12.3569236 66.6107126,10.883338 64.7432414,10.2587866 L61.0724655,9.02968733 Z" id="Stroke-52" stroke="#231F20" stroke-linecap="round" stroke-linejoin="round"></path>
                    <line x1="51.115569" y1="116.82592" x2="48.9029253" y2="116.82592" id="Stroke-54" stroke="#231F20" stroke-linecap="round" stroke-linejoin="round"></line>
                    <line x1="88.7305115" y1="116.82592" x2="55.5408563" y2="116.82592" id="Stroke-56" stroke="#231F20" stroke-linecap="round" stroke-linejoin="round"></line>
                    <line x1="104.219017" y1="110.158112" x2="106.431661" y2="110.158112" id="Stroke-58" stroke="#231F20" stroke-linecap="round" stroke-linejoin="round"></line>
                    <line x1="66.6040747" y1="110.158112" x2="99.7937299" y2="110.158112" id="Stroke-60" stroke="#231F20" stroke-linecap="round" stroke-linejoin="round"></line>
                    <polygon id="Fill-62" fill="#FFFFFF" points="40.0523506 86.8207832 24.5638448 64.5947558 40.0523506 42.3687284 55.5408563 64.5947558"></polygon>
                    <polygon id="Stroke-64" stroke="#231F20" stroke-linecap="round" stroke-linejoin="round" points="40.0523506 86.8207832 24.5638448 64.5947558 40.0523506 42.3687284 55.5408563 64.5947558"></polygon>
                    <polygon id="Stroke-66" stroke="#231F20" stroke-linecap="round" stroke-linejoin="round" points="24.5638448 64.5947558 40.0523506 56.8156462 55.5408563 64.5947558 40.0523506 72.3738654"></polygon>
                    <line x1="40.0523506" y1="42.3687284" x2="40.0523506" y2="86.8207832" id="Stroke-68" stroke="#231F20" stroke-linecap="round" stroke-linejoin="round"></line>
                </g>
            </g>
        </g>
    </g>
</svg>