<?xml version="1.0" encoding="UTF-8"?>
<svg width="116px" height="104px" viewBox="0 0 116 104" version="1.1" xmlns="http://www.w3.org/2000/svg" xmlns:xlink="http://www.w3.org/1999/xlink">
    <title>27B71B0D-D0A9-4DF2-A1D3-AEC83408099C</title>
    <g id="DAppNode-DAO" stroke="none" stroke-width="1" fill="none" fill-rule="evenodd">
        <g id="DAPPNode-DAO-Desktop-1280px---∞" transform="translate(-190.000000, -5074.000000)">
            <g id="About-DAO" transform="translate(-352.000000, 4163.000000)">
                <g id="icon-03" transform="translate(543.000000, 912.000000)">
                    <polygon id="Stroke-27" stroke="#231F20" stroke-linecap="round" stroke-linejoin="round" points="57 28 79 68 35 68"></polygon>
                    <line x1="79" y1="90" x2="79" y2="77" id="Stroke-32" stroke="#231F20" stroke-linecap="round" stroke-linejoin="round"></line>
                    <line x1="104" y1="68" x2="91" y2="68" id="Stroke-33" stroke="#231F20" stroke-linecap="round" stroke-linejoin="round"></line>
                    <line x1="35" y1="90" x2="35" y2="77" id="Stroke-38" stroke="#231F20" stroke-linecap="round" stroke-linejoin="round"></line>
                    <line x1="11" y1="68" x2="24" y2="68" id="Stroke-39" stroke="#231F20" stroke-linecap="round" stroke-linejoin="round"></line>
                    <line x1="40" y1="9" x2="48" y2="18" id="Stroke-44" stroke="#231F20" stroke-linecap="round" stroke-linejoin="round"></line>
                    <line x1="75" y1="9" x2="67" y2="18" id="Stroke-45" stroke="#231F20" stroke-linecap="round" stroke-linejoin="round"></line>
                    <line x1="94" y1="34" x2="94" y2="41" id="Stroke-46" stroke="#231F20" stroke-linecap="round" stroke-linejoin="round"></line>
                    <line x1="91" y1="37" x2="98" y2="37" id="Stroke-47" stroke="#231F20" stroke-linecap="round" stroke-linejoin="round"></line>
                    <line x1="57" y1="84" x2="57" y2="91" id="Stroke-48" stroke="#231F20" stroke-linecap="round" stroke-linejoin="round"></line>
                    <line x1="54" y1="87" x2="61" y2="87" id="Stroke-49" stroke="#231F20" stroke-linecap="round" stroke-linejoin="round"></line>
                    <line x1="21" y1="34" x2="21" y2="41" id="Stroke-50" stroke="#231F20" stroke-linecap="round" stroke-linejoin="round"></line>
                    <line x1="17" y1="37" x2="24" y2="37" id="Stroke-51" stroke="#231F20" stroke-linecap="round" stroke-linejoin="round"></line>
                    <path d="M69,67 C69,60.9261667 73.9261667,56 80,56 C86.0756667,56 91,60.9261667 91,67 C91,73.0756667 86.0756667,78 80,78 C73.9261667,78 69,73.0756667 69,67" id="Fill-28" fill="#FFFFFF"></path>
                    <path d="M69,67 C69,60.9261667 73.9261667,56 80,56 C86.0756667,56 91,60.9261667 91,67 C91,73.0756667 86.0756667,78 80,78 C73.9261667,78 69,73.0756667 69,67 Z" id="Stroke-29" stroke="#231F20" stroke-linecap="round" stroke-linejoin="round"></path>
                    <path d="M75,96 C75,92.686 77.4621667,90 80.5,90 C83.5378333,90 86,92.686 86,96 C86,99.314 83.5378333,102 80.5,102 C77.4621667,102 75,99.314 75,96 Z" id="Stroke-30" stroke="#231F20" fill="#DAF2F9" stroke-linecap="round" stroke-linejoin="round"></path>
                    <path d="M103,67 C103,63.686 105.462167,61 108.5,61 C111.537833,61 114,63.686 114,67 C114,70.314 111.537833,73 108.5,73 C105.462167,73 103,70.314 103,67 Z" id="Stroke-31" stroke="#231F20" fill="#DAF2F9" stroke-linecap="round" stroke-linejoin="round"></path>
                    <path d="M46,67 C46,60.9261667 41.0756667,56 35,56 C28.9261667,56 24,60.9261667 24,67 C24,73.0756667 28.9261667,78 35,78 C41.0756667,78 46,73.0756667 46,67" id="Fill-34" fill="#FFFFFF"></path>
                    <path d="M46,67 C46,60.9261667 41.0756667,56 35,56 C28.9261667,56 24,60.9261667 24,67 C24,73.0756667 28.9261667,78 35,78 C41.0756667,78 46,73.0756667 46,67 Z" id="Stroke-35" stroke="#231F20" stroke-linecap="round" stroke-linejoin="round"></path>
                    <path d="M40,96 C40,92.686 37.5378333,90 34.5,90 C31.4621667,90 29,92.686 29,96 C29,99.314 31.4621667,102 34.5,102 C37.5378333,102 40,99.314 40,96 Z" id="Stroke-36" stroke="#231F20" fill="#DAF2F9" stroke-linecap="round" stroke-linejoin="round"></path>
                    <path d="M11,67 C11,63.686 8.53783333,61 5.5,61 C2.46216667,61 0,63.686 0,67 C0,70.314 2.46216667,73 5.5,73 C8.53783333,73 11,70.314 11,67 Z" id="Stroke-37" stroke="#231F20" fill="#DAF2F9" stroke-linecap="round" stroke-linejoin="round"></path>
                    <path d="M50.2217592,33.7782408 C54.5174382,38.0739197 61.4825618,38.0739197 65.7782408,33.7782408 C70.0739197,29.4825618 70.0739197,22.5174382 65.7782408,18.2217592 C61.4825618,13.9260803 54.5174382,13.9260803 50.2217592,18.2217592 C45.9260803,22.5174382 45.9260803,29.4825618 50.2217592,33.7782408" id="Fill-40" fill="#FFFFFF"></path>
                    <path d="M50.2217592,33.7782408 C54.5174382,38.0739197 61.4825618,38.0739197 65.7782408,33.7782408 C70.0739197,29.4825618 70.0739197,22.5174382 65.7782408,18.2217592 C61.4825618,13.9260803 54.5174382,13.9260803 50.2217592,18.2217592 C45.9260803,22.5174382 45.9260803,29.4825618 50.2217592,33.7782408 Z" id="Stroke-41" stroke="#231F20" stroke-linecap="round" stroke-linejoin="round"></path>
                    <path d="M31.6115,10.2420732 C33.7583333,12.5859756 37.2416667,12.5859756 39.3885,10.2420732 C41.5371667,7.90017083 41.5371667,4.10032915 39.3885,1.75642682 C37.2416667,-0.585475605 33.7583333,-0.585475605 31.6115,1.75642682 C29.4628333,4.10032915 29.4628333,7.90017083 31.6115,10.2420732 Z" id="Stroke-42" stroke="#231F20" fill="#DAF2F9" stroke-linecap="round" stroke-linejoin="round"></path>
                    <path d="M74.6115,10.2420732 C76.7583333,12.5859756 80.2416667,12.5859756 82.3885,10.2420732 C84.5371667,7.90017083 84.5371667,4.10032915 82.3885,1.75642682 C80.2416667,-0.585475605 76.7583333,-0.585475605 74.6115,1.75642682 C72.4628333,4.10032915 72.4628333,7.90017083 74.6115,10.2420732 Z" id="Stroke-43" stroke="#231F20" fill="#DAF2F9" stroke-linecap="round" stroke-linejoin="round"></path>
                </g>
            </g>
        </g>
    </g>
</svg>