<?xml version="1.0" encoding="UTF-8"?>
<svg width="132px" height="119px" viewBox="0 0 132 119" version="1.1" xmlns="http://www.w3.org/2000/svg" xmlns:xlink="http://www.w3.org/1999/xlink">
    <title>2C6F9230-A2A4-4B4A-85B1-BC6802F6E4A4</title>
    <g id="DAppNode-DAO" stroke="none" stroke-width="1" fill="none" fill-rule="evenodd">
        <g id="DAPPNode-DAO-Desktop-1280px---∞" transform="translate(-190.000000, -4417.000000)">
            <g id="About-DAO" transform="translate(-352.000000, 4163.000000)">
                <g id="icon-01" transform="translate(543.000000, 254.000000)">
                    <line x1="20" y1="60" x2="109" y2="60" id="Stroke-1" stroke="#231F20" stroke-linecap="round" stroke-linejoin="round"></line>
                    <line x1="41" y1="100" x2="88" y2="20" id="Stroke-2" stroke="#231F20" stroke-linecap="round" stroke-linejoin="round"></line>
                    <line x1="88" y1="100" x2="41" y2="20" id="Stroke-3" stroke="#231F20" stroke-linecap="round" stroke-linejoin="round"></line>
                    <g id="Group-48">
                        <path d="M95.4781665,59.2800377 C95.4781665,75.9901773 81.8691113,89.5374126 65.0827187,89.5374126 C48.296326,89.5374126 34.6872708,75.9901773 34.6872708,59.2800377 C34.6872708,42.569898 48.296326,29.0226627 65.0827187,29.0226627 C81.8691113,29.0226627 95.4781665,42.569898 95.4781665,59.2800377" id="Fill-31" fill="#DAF2F9"></path>
                        <path d="M95.4781665,59.2800377 C95.4781665,75.9901773 81.8691113,89.5374126 65.0827187,89.5374126 C48.296326,89.5374126 34.6872708,75.9901773 34.6872708,59.2800377 C34.6872708,42.569898 48.296326,29.0226627 65.0827187,29.0226627 C81.8691113,29.0226627 95.4781665,42.569898 95.4781665,59.2800377 Z" id="Stroke-32" stroke="#231F20" stroke-linecap="round" stroke-linejoin="round"></path>
                        <polygon id="Fill-33" fill="#FFFFFF" points="65.0827187 79.451621 50.8981763 59.2800377 65.0827187 39.1084544 79.267261 59.2800377"></polygon>
                        <polygon id="Stroke-34" stroke="#231F20" stroke-linecap="round" stroke-linejoin="round" points="65.0827187 79.451621 50.8981763 59.2800377 65.0827187 39.1084544 79.267261 59.2800377"></polygon>
                        <polygon id="Stroke-35" stroke="#231F20" stroke-linecap="round" stroke-linejoin="round" points="50.8981763 59.2800377 65.0827187 52.2199835 79.267261 59.2800377 65.0827187 66.3400918"></polygon>
                        <line x1="65.0827187" y1="39.1084544" x2="65.0827187" y2="79.451621" id="Stroke-36" stroke="#231F20" stroke-linecap="round" stroke-linejoin="round"></line>
                        <path d="M112.631128,66.4119026 C108.673641,62.4723924 108.673641,56.0860692 112.631128,52.1485761 C116.586589,48.2090659 123.002055,48.2090659 126.959542,52.1485761 C130.915003,56.0860692 130.915003,62.4723924 126.959542,66.4119026 C123.002055,70.3514129 116.586589,70.3514129 112.631128,66.4119026 Z" id="Stroke-37" stroke="#231F20" fill="#FFFFFF" stroke-linecap="round" stroke-linejoin="round"></path>
                        <path d="M3.20751604,66.4119026 C-0.749971272,62.4723924 -0.749971272,56.0860692 3.20751604,52.1485761 C7.16297698,48.2090659 13.5784428,48.2090659 17.5359302,52.1485761 C21.4913911,56.0860692 21.4913911,62.4723924 17.5359302,66.4119026 C13.5784428,70.3514129 7.16297698,70.3514129 3.20751604,66.4119026 Z" id="Stroke-38" stroke="#231F20" fill="#FFFFFF" stroke-linecap="round" stroke-linejoin="round"></path>
                        <path d="M83.5060075,107.877013 C83.5060075,102.307639 88.0430347,97.7912211 93.6378235,97.7912211 C99.2346386,97.7912211 103.769639,102.307639 103.769639,107.877013 C103.769639,113.448404 99.2346386,117.962804 93.6378235,117.962804 C88.0430347,117.962804 83.5060075,113.448404 83.5060075,107.877013 Z" id="Stroke-39" stroke="#231F20" fill="#FFFFFF" stroke-linecap="round" stroke-linejoin="round"></path>
                        <path d="M26.3957979,10.6830626 C26.3957979,5.11167129 30.9307987,0.597270949 36.5276139,0.597270949 C42.124429,0.597270949 46.6594298,5.11167129 46.6594298,10.6830626 C46.6594298,16.2524367 42.124429,20.7688542 36.5276139,20.7688542 C30.9307987,20.7688542 26.3957979,16.2524367 26.3957979,10.6830626 Z" id="Stroke-40" stroke="#231F20" fill="#FFFFFF" stroke-linecap="round" stroke-linejoin="round"></path>
                        <path d="M93.6378235,20.7688542 C88.0430347,20.7688542 83.5060075,16.2524367 83.5060075,10.6830626 C83.5060075,5.11167129 88.0430347,0.597270949 93.6378235,0.597270949 C99.2346386,0.597270949 103.769639,5.11167129 103.769639,10.6830626 C103.769639,16.2524367 99.2346386,20.7688542 93.6378235,20.7688542 Z" id="Stroke-41" stroke="#231F20" fill="#FFFFFF" stroke-linecap="round" stroke-linejoin="round"></path>
                        <path d="M36.5276139,117.962804 C30.9307987,117.962804 26.3957979,113.448404 26.3957979,107.877013 C26.3957979,102.307639 30.9307987,97.7912211 36.5276139,97.7912211 C42.124429,97.7912211 46.6594298,102.307639 46.6594298,107.877013 C46.6594298,113.448404 42.124429,117.962804 36.5276139,117.962804 Z" id="Stroke-42" stroke="#231F20" fill="#FFFFFF" stroke-linecap="round" stroke-linejoin="round"></path>
                        <path d="M93.6378235,97.7912211 C95.370364,97.7912211 96.9752436,98.2632361 98.4018033,99.0277391 L115.032166,68.1289078 C114.177041,67.67303 113.352311,67.1304144 112.630926,66.4123061 C108.673438,62.4727959 108.673438,56.0864726 112.630926,52.1489795 C113.352311,51.428854 114.177041,50.8882556 115.032166,50.4303606 L98.4018033,19.5335465 C96.9752436,20.2960323 95.370364,20.7680474 93.6378235,20.7680474 C88.0430347,20.7680474 83.5060075,16.253647 83.5060075,10.6822557 L46.6586193,10.6822557 C46.6586193,16.253647 42.1236185,20.7680474 36.5268033,20.7680474 C34.7962892,20.7680474 33.1914095,20.2960323 31.7648498,19.5335465 L15.1344871,50.4303606 C15.9916388,50.8882556 16.8143422,51.428854 17.5357275,52.1489795 C21.4911885,56.0864726 21.4911885,62.4727959 17.5357275,66.4123061 C16.8143422,67.1304144 15.9916388,67.67303 15.1344871,68.1289078 L31.7648498,99.0277391 C33.1914095,98.2632361 34.7962892,97.7912211 36.5268033,97.7912211 C42.1236185,97.7912211 46.6586193,102.307639 46.6586193,107.877013 L83.5060075,107.877013 C83.5060075,102.307639 88.0430347,97.7912211 93.6378235,97.7912211 Z" id="Stroke-43" stroke="#231F20" stroke-linecap="round" stroke-linejoin="round"></path>
                        <line x1="53.9377211" y1="113.743313" x2="51.9113579" y2="113.743313" id="Stroke-44" stroke="#231F20" stroke-linecap="round" stroke-linejoin="round"></line>
                        <line x1="78.2540794" y1="113.743313" x2="57.9904475" y2="113.743313" id="Stroke-45" stroke="#231F20" stroke-linecap="round" stroke-linejoin="round"></line>
                        <line x1="76.2277162" y1="4.63158761" x2="78.2540794" y2="4.63158761" id="Stroke-46" stroke="#231F20" stroke-linecap="round" stroke-linejoin="round"></line>
                        <line x1="51.9113579" y1="4.63158761" x2="72.1749898" y2="4.63158761" id="Stroke-47" stroke="#231F20" stroke-linecap="round" stroke-linejoin="round"></line>
                    </g>
                </g>
            </g>
        </g>
    </g>
</svg>