<?xml version="1.0" encoding="UTF-8"?>
<svg width="53px" height="35px" viewBox="0 0 53 35" version="1.1" xmlns="http://www.w3.org/2000/svg" xmlns:xlink="http://www.w3.org/1999/xlink">
    <title>1C24F2F5-0AEA-4109-AD15-7B8F7215981C</title>
    <g id="DAppNode-DAO" stroke="none" stroke-width="1" fill="none" fill-rule="evenodd">
        <g id="DAPPNode-DAO-Desktop-HD" transform="translate(-1102.000000, -10019.000000)" fill="#FFFFFF" fill-rule="nonzero">
            <g id="Footer" transform="translate(0.000000, 7387.000000)">
                <g id="Bottom" transform="translate(0.000000, 1916.703170)">
                    <g id="Social-Icons" transform="translate(445.000000, 706.296830)">
                        <path d="M707.056166,9 L700.527166,9 C699.949966,9 699.396366,9.229295 698.988166,9.637442 C698.580066,10.045582 698.350766,10.599152 698.350766,11.176352 C698.350766,11.753562 698.580066,12.307122 698.988166,12.715272 C699.396366,13.123422 699.949966,13.352712 700.527166,13.352712 L701.092966,13.352712 L689.884766,36.487422 L685.292666,25.888522 L691.821666,13.352712 L692.975166,13.352712 C693.552366,13.352712 694.105966,13.123422 694.514066,12.715272 C694.922266,12.307122 695.151566,11.753562 695.151566,11.176352 C695.151566,10.599152 694.922266,10.045582 694.514066,9.637442 C694.105966,9.229295 693.552366,9 692.975166,9 L686.446066,9 C685.868866,9 685.315366,9.229295 684.907166,9.637442 C684.499066,10.045582 684.269766,10.599152 684.269766,11.176352 C684.269766,11.753562 684.499066,12.307122 684.907166,12.715272 C685.315366,13.123422 685.868866,13.352712 686.446066,13.352712 L686.903166,13.352712 L682.963966,20.774122 L679.677666,13.352712 L679.851766,13.352712 C680.428966,13.352712 680.982466,13.123422 681.390666,12.715272 C681.798766,12.307122 682.028066,11.753562 682.028066,11.176352 C682.028066,10.599152 681.798766,10.045582 681.390666,9.637442 C680.982466,9.229295 680.428966,9 679.851766,9 L673.322666,9 C672.745466,9 672.191866,9.229295 671.783766,9.637442 C671.375566,10.045582 671.146366,10.599152 671.146366,11.176352 C671.146366,11.753562 671.375566,12.307122 671.783766,12.715272 C672.191866,13.123422 672.745466,13.352712 673.322666,13.352712 L674.933166,13.352712 L680.395866,25.757922 L674.802566,36.487422 L665.444266,13.352712 L666.793566,13.352712 C667.370766,13.352712 667.924366,13.123422 668.332566,12.715272 C668.740666,12.307122 668.969966,11.753562 668.969966,11.176352 C668.969966,10.599152 668.740666,10.045582 668.332566,9.637442 C667.924366,9.229295 667.370766,9 666.793566,9 L659.176356,9 C658.599146,9 658.045586,9.229295 657.637436,9.637442 C657.229294,10.045582 657,10.599152 657,11.176352 C657,11.753562 657.229294,12.307122 657.637436,12.715272 C658.045586,13.123422 658.599146,13.352712 659.176356,13.352712 L660.743336,13.352712 L672.539166,42.494122 C672.696566,42.867822 672.955166,43.190022 673.285866,43.424622 C673.616566,43.659222 674.006166,43.796722 674.410866,43.8217264 C674.810466,43.822522 675.202666,43.713322 675.544266,43.506022 C675.885966,43.298722 676.163966,43.001322 676.347766,42.646422 L682.637466,30.763522 L687.795466,42.472322 C687.962366,42.854922 688.235766,43.181422 688.582966,43.412922 C688.930266,43.644522 689.336866,43.771222 689.754166,43.778222 C690.162066,43.779022 690.561966,43.665122 690.908266,43.449722 C691.254666,43.234222 691.533366,42.925722 691.712866,42.559422 L705.946266,13.352712 L707.056166,13.352712 C707.633366,13.352712 708.186966,13.123422 708.595166,12.715272 C709.003266,12.307122 709.232566,11.753562 709.232566,11.176352 C709.232566,10.599152 709.003266,10.045582 708.595166,9.637442 C708.186966,9.229295 707.633366,9 707.056166,9 Z" id="Wikipedia-Icon"></path>
                    </g>
                </g>
            </g>
        </g>
    </g>
</svg>