<?xml version="1.0" encoding="UTF-8"?>
<svg width="53px" height="51px" viewBox="0 0 53 51" version="1.1" xmlns="http://www.w3.org/2000/svg" xmlns:xlink="http://www.w3.org/1999/xlink">
    <title>814C63F9-210A-433D-B218-1AEDAE68C663</title>
    <g id="DAppNode-DAO" stroke="none" stroke-width="1" fill="none" fill-rule="evenodd">
        <g id="DAPPNode-DAO-Desktop-HD" transform="translate(-610.000000, -10011.000000)" fill="#FFFFFF" fill-rule="nonzero">
            <g id="Footer" transform="translate(0.000000, 7387.000000)">
                <g id="Bottom" transform="translate(0.000000, 1916.703170)">
                    <g id="Social-Icons" transform="translate(445.000000, 706.296830)">
                        <path d="M191.124096,1 C184.906696,0.998154153 178.892596,3.21448315 174.163176,7.25046315 C169.433796,11.2864132 166.299426,16.8773132 165.323678,23.0176132 C164.347933,29.1580132 165.594826,35.4451132 168.840156,40.7483132 C172.085486,46.0515132 177.116296,50.0229132 183.028096,51.9485132 L183.659196,51.9485132 C183.967096,51.9676132 184.275596,51.9210132 184.564096,51.8118132 C184.852696,51.7027132 185.114696,51.5334132 185.332896,51.3152132 C185.550996,51.0971132 185.720296,50.8350132 185.829496,50.5465132 C185.938696,50.2579132 185.985196,49.9495132 185.966096,49.6416132 L185.966096,49.1845132 C185.966096,48.8145132 185.966096,48.3140132 185.966096,46.8123132 C185.944796,46.6697132 185.895296,46.5328132 185.820596,46.4095132 C185.745896,46.2862132 185.647396,46.1790132 185.530896,46.0941132 C185.404396,45.9918132 185.256696,45.9192132 185.098496,45.8815132 C184.940396,45.8439132 184.775696,45.8421132 184.616796,45.8765132 C178.784196,47.1387132 177.543596,43.4825132 177.456596,43.2431132 C176.726196,41.3085132 175.419596,39.6449132 173.713246,38.4769132 C173.611006,38.3884132 173.501846,38.3084132 173.386786,38.2374132 C173.639696,38.1013132 173.928986,38.0480132 174.213806,38.0851132 C174.760796,38.1612132 175.278796,38.3775132 175.717396,38.7131132 C176.155996,39.0488132 176.500196,39.4922132 176.716596,40.0003132 C177.558496,41.4663132 178.936196,42.5485132 180.559896,43.0194132 C182.183496,43.4902132 183.926496,43.3129132 185.421996,42.5249132 C185.582496,42.4547132 185.723696,42.3468132 185.833596,42.2104132 C185.943496,42.0740132 186.018796,41.9131132 186.053196,41.7414132 C186.136496,40.7347132 186.567396,39.7883132 187.271996,39.0645132 C187.428396,38.9256132 187.541396,38.7445132 187.597596,38.5430132 C187.653796,38.3415132 187.650696,38.1281132 187.588696,37.9283132 C187.526696,37.7285132 187.408396,37.5508132 187.247996,37.4165132 C187.087596,37.2822132 186.891896,37.1970132 186.684296,37.1710132 C181.526396,36.5834132 176.259596,34.7770132 176.259596,25.8757132 C176.216096,23.6404132 177.034396,21.4740132 178.544796,19.8255132 C178.683896,19.6718132 178.776196,19.4816132 178.810896,19.2773132 C178.845596,19.0730132 178.821196,18.8630132 178.740596,18.6720132 C178.135796,16.9821132 178.143496,15.1335132 178.762396,13.4487132 C180.772996,13.8052132 182.660096,14.6663132 184.246796,15.9516132 C184.377896,16.0441132 184.528196,16.1058132 184.686396,16.1322132 C184.844696,16.1586132 185.006896,16.1489132 185.160896,16.1039132 C187.104996,15.5765132 189.109696,15.3058132 191.124096,15.2987132 C193.145996,15.3004132 195.158696,15.5711132 197.109096,16.1039132 C197.259896,16.1455132 197.417996,16.1534132 197.572196,16.1271132 C197.726396,16.1008132 197.872896,16.0408132 198.001396,15.9516132 C199.590596,14.6704132 201.476596,13.8097132 203.485796,13.4487132 C204.078296,15.1245132 204.078296,16.9527132 203.485796,18.6285132 C203.405196,18.8194132 203.380796,19.0294132 203.415496,19.2338132 C203.450196,19.4381132 203.542596,19.6283132 203.681696,19.7819132 C205.176496,21.4139132 205.993596,23.5540132 205.966896,25.7669132 C205.966896,34.6682132 200.678296,36.4528132 195.498596,37.0405132 C195.286096,37.0626132 195.084896,37.1467132 194.919896,37.2824132 C194.754996,37.4181132 194.633596,37.5994132 194.570996,37.8036132 C194.508296,38.0078132 194.507196,38.2259132 194.567596,38.4308132 C194.628096,38.6356132 194.747496,38.8182132 194.910996,38.9556132 C195.392996,39.4532132 195.761396,40.0495132 195.990596,40.7033132 C196.219796,41.3571132 196.304396,42.0528132 196.238496,42.7425132 L196.238496,49.6633132 C196.227796,50.0036132 196.292396,50.3420132 196.427896,50.6543132 C196.563296,50.9666132 196.766196,51.2451132 197.021996,51.4697132 C197.347796,51.7136132 197.725996,51.8780132 198.126496,51.9498132 C198.526996,52.0216132 198.938796,51.9988132 199.328996,51.8832132 C205.200996,49.9187132 210.184096,45.9318132 213.388996,40.6339132 C216.593896,35.3359132 217.812196,29.0716132 216.826496,22.9586132 C215.840796,16.8457132 212.715196,11.2818132 208.007396,7.25974315 C203.299696,3.23769315 197.315996,1.01916315 191.124096,1 Z" id="GitHub-Icon"></path>
                    </g>
                </g>
            </g>
        </g>
    </g>
</svg>