<?xml version="1.0" encoding="UTF-8"?>
<svg width="53px" height="43px" viewBox="0 0 53 43" version="1.1" xmlns="http://www.w3.org/2000/svg" xmlns:xlink="http://www.w3.org/1999/xlink">
    <title>69808BC2-5DC0-4375-A5A7-D10C28AC8A17</title>
    <g id="DAppNode-DAO" stroke="none" stroke-width="1" fill="none" fill-rule="evenodd">
        <g id="DAPPNode-DAO-Desktop-HD" transform="translate(-774.000000, -10015.000000)" fill="#FFFFFF" fill-rule="nonzero">
            <g id="Footer" transform="translate(0.000000, 7387.000000)">
                <g id="Bottom" transform="translate(0.000000, 1916.703170)">
                    <g id="Social-Icons" transform="translate(445.000000, 706.296830)">
                        <path d="M381.232713,25.1580825 C381.226665,23.7838825 380.787365,22.4465825 379.977165,21.3366825 C379.166865,20.2267825 378.027165,19.4008825 376.720165,18.9763825 C375.413165,18.5519825 374.005565,18.5507825 372.697865,18.9729825 C371.390165,19.3951825 370.248965,20.2191825 369.436765,21.3276825 C365.592465,19.0380825 361.240565,17.7369825 356.770365,17.5407825 C356.900965,15.2338825 357.575665,11.2293625 359.773765,9.9670825 C361.144865,9.1835925 363.147165,9.5535725 365.671665,10.9682025 C365.802165,12.2490925 366.384365,13.4416825 367.314165,14.3323825 C368.243865,15.2229825 369.460365,15.7535825 370.745665,15.8289825 C372.030965,15.9043825 373.301065,15.5196825 374.328565,14.7437825 C375.356065,13.9679025 376.073765,12.8515525 376.353065,11.5947025 C376.632365,10.3378425 376.454965,9.0226125 375.852865,7.8845925 C375.250665,6.7465825 374.262965,5.8601425 373.066765,5.3840725 C371.870465,4.9079985 370.543765,4.8733995 369.324365,5.2864725 C368.104865,5.6995425 367.072365,6.5333025 366.411665,7.6383825 C365.190065,6.8572325 363.788965,6.4012225 362.341665,6.3136125 C360.894265,6.2260125 359.448465,6.5097125 358.141465,7.1378225 C354.289365,9.3141725 353.592965,15.0814825 353.484065,17.5407825 C349.006665,17.7343825 344.647065,19.0354825 340.795965,21.3276825 C339.983865,20.2191825 338.842665,19.3951825 337.534915,18.9729825 C336.227195,18.5507825 334.819605,18.5519825 333.512615,18.9763825 C332.205625,19.4008825 331.065855,20.2267825 330.255635,21.3366825 C329.445415,22.4465825 329.006042,23.7838825 329.000048,25.1580825 C328.994874,26.5124825 329.411035,27.8350825 330.190915,28.9424825 C330.970795,30.0499825 332.075785,30.8873825 333.352805,31.3388825 C333.321175,31.8171825 333.321175,32.2969825 333.352805,32.7752825 C333.352805,41.1759825 343.124665,48.0097825 355.116365,48.0097825 C367.108065,48.0097825 376.879965,41.1759825 376.879965,32.7752825 C376.911565,32.2969825 376.911565,31.8171825 376.879965,31.3388825 C378.156965,30.8873825 379.261965,30.0499825 380.041865,28.9424825 C380.821765,27.8350825 381.237865,26.5124825 381.232713,25.1580825 Z M343.146365,29.5107825 C343.146365,28.8650825 343.337865,28.2338825 343.696565,27.6970825 C344.055265,27.1601825 344.565165,26.7417825 345.161665,26.4946825 C345.758165,26.2476825 346.414565,26.1829825 347.047865,26.3089825 C347.681065,26.4348825 348.262765,26.7457825 348.719365,27.2023825 C349.175865,27.6589825 349.486765,28.2405825 349.612765,28.8738825 C349.738765,29.5071825 349.674065,30.1634825 349.426965,30.7600825 C349.179865,31.3565825 348.761465,31.8663825 348.224665,32.2250825 C347.687765,32.5838825 347.056565,32.7752825 346.410965,32.7752825 C345.545165,32.7752825 344.714765,32.4313825 344.102565,31.8191825 C343.490365,31.2068825 343.146365,30.3765825 343.146365,29.5107825 Z M363.625965,40.3925825 C361.022065,41.8332825 358.092265,42.5825825 355.116365,42.5688825 C352.125065,42.5959825 349.177865,41.8460825 346.563265,40.3925825 C346.188065,40.1760825 345.914265,39.8194825 345.802065,39.4010825 C345.689765,38.9827825 345.748365,38.5369825 345.964765,38.1617825 C346.181265,37.7865825 346.537865,37.5127825 346.956265,37.4004825 C347.374565,37.2882825 347.820365,37.3467825 348.195565,37.5632825 C350.333265,38.6490825 352.696965,39.2149825 355.094565,39.2149825 C357.492265,39.2149825 359.855965,38.6490825 361.993665,37.5632825 C362.368865,37.3467825 362.814665,37.2882825 363.232965,37.4004825 C363.651365,37.5127825 364.007965,37.7865825 364.224465,38.1617825 C364.440865,38.5369825 364.499465,38.9827825 364.387165,39.4010825 C364.274965,39.8194825 364.001065,40.1760825 363.625965,40.3925825 Z M363.821765,32.7752825 C363.176165,32.7752825 362.544965,32.5838825 362.008165,32.2250825 C361.471265,31.8663825 361.052865,31.3565825 360.805765,30.7600825 C360.558665,30.1634825 360.494065,29.5071825 360.619965,28.8738825 C360.745965,28.2405825 361.056865,27.6589825 361.513465,27.2023825 C361.969965,26.7457825 362.551665,26.4348825 363.184965,26.3089825 C363.818165,26.1829825 364.474565,26.2476825 365.071065,26.4946825 C365.667565,26.7417825 366.177465,27.1601825 366.536165,27.6970825 C366.894865,28.2338825 367.086365,28.8650825 367.086365,29.5107825 C367.086365,30.3765825 366.742365,31.2068825 366.130165,31.8191825 C365.517965,32.4313825 364.687565,32.7752825 363.821765,32.7752825 Z" id="Reddit-Icon"></path>
                    </g>
                </g>
            </g>
        </g>
    </g>
</svg>