<?xml version="1.0" encoding="UTF-8"?>
<svg width="51px" height="42px" viewBox="0 0 51 42" version="1.1" xmlns="http://www.w3.org/2000/svg" xmlns:xlink="http://www.w3.org/1999/xlink">
    <title>A93FF032-B93A-4918-8137-CF639CF02F6A</title>
    <g id="DAppNode-DAO" stroke="none" stroke-width="1" fill="none" fill-rule="evenodd">
        <g id="DAPPNode-DAO-Desktop-HD" transform="translate(-939.000000, -10016.000000)" fill="#FFFFFF" fill-rule="nonzero">
            <g id="Footer" transform="translate(0.000000, 7387.000000)">
                <g id="Bottom" transform="translate(0.000000, 1916.703170)">
                    <g id="Social-Icons" transform="translate(445.000000, 706.296830)">
                        <path d="M543.903631,14.444261 C544.058531,14.315551 544.174631,14.146381 544.239031,13.955591 C544.303531,13.764801 544.313731,13.559881 544.268631,13.363621 C544.223531,13.167371 544.124831,12.987481 543.983531,12.843981 C543.842231,12.700491 543.663931,12.599001 543.468431,12.550831 L541.749031,12.115561 C541.592731,12.076421 541.447031,12.003051 541.322531,11.900751 C541.198031,11.798441 541.097731,11.669751 541.029031,11.523981 C540.960331,11.378211 540.924831,11.219001 540.925131,11.057841 C540.925431,10.896691 540.961631,10.737611 541.030831,10.592111 L541.988431,8.655151 C542.078931,8.467461 542.113631,8.257741 542.088331,8.050921 C542.063131,7.844101 541.979031,7.648861 541.846131,7.488431 C541.713231,7.327991 541.537031,7.209081 541.338431,7.145851 C541.139931,7.082621 540.927431,7.077711 540.726131,7.131701 L536.373431,8.350471 C536.211331,8.397771 536.040331,8.406661 535.874131,8.376441 C535.707931,8.346221 535.551031,8.277721 535.415831,8.176361 C533.532231,6.763661 531.241331,6 528.886831,6 C526.000731,6 523.232931,7.146471 521.192231,9.187201 C519.151531,11.227931 518.005031,13.995761 518.005031,16.881811 L518.005031,17.665311 C518.005931,17.798911 517.957731,17.928311 517.869431,18.028611 C517.781131,18.129011 517.658931,18.193311 517.526231,18.209411 C511.410631,18.927511 505.556231,15.815411 499.244811,8.546341 C499.107711,8.395131 498.931561,8.284651 498.735741,8.227061 C498.539921,8.169461 498.332011,8.166981 498.134871,8.219881 C497.957271,8.301521 497.804941,8.429481 497.693881,8.590321 C497.582821,8.751171 497.517141,8.938951 497.503731,9.133951 C496.632001,12.714801 496.984451,16.484411 498.504851,19.841611 C498.549841,19.930711 498.569471,20.030411 498.561621,20.129811 C498.553761,20.229311 498.518711,20.324611 498.460301,20.405511 C498.401891,20.486411 498.322371,20.549711 498.230431,20.588411 C498.138491,20.627111 498.037671,20.639811 497.939001,20.625111 L495.501481,20.146311 C495.328371,20.118511 495.151111,20.132911 494.984771,20.188311 C494.818435,20.243711 494.667952,20.338511 494.546133,20.464611 C494.424314,20.590711 494.334767,20.744411 494.285114,20.912511 C494.23546,21.080711 494.227172,21.258311 494.260954,21.430411 C494.448858,23.100611 495.010001,24.707211 495.902841,26.131211 C496.795681,27.555211 497.997361,28.760211 499.418921,29.657011 C499.510911,29.701511 499.588491,29.771111 499.642771,29.857711 C499.697061,29.944311 499.725851,30.044511 499.725851,30.146711 C499.725851,30.248911 499.697061,30.349011 499.642771,30.435611 C499.588491,30.522211 499.510911,30.591811 499.418921,30.636311 L498.265451,31.093411 C498.125371,31.149511 497.998501,31.234211 497.892911,31.342111 C497.787321,31.449911 497.705311,31.578511 497.652091,31.719711 C497.598871,31.860911 497.575621,32.011711 497.583801,32.162411 C497.591971,32.313111 497.631411,32.460411 497.699601,32.595111 C498.337471,33.990811 499.304351,35.211111 500.517321,36.151111 C501.730301,37.091211 503.153171,37.723011 504.663931,37.992411 C504.768931,38.030611 504.859731,38.100111 504.923831,38.191611 C504.988031,38.283111 505.022431,38.392111 505.022431,38.503911 C505.022431,38.615611 504.988031,38.724711 504.923831,38.816211 C504.859731,38.907711 504.768931,38.977211 504.663931,39.015311 C501.704891,40.239211 498.529361,40.853511 495.327371,40.821711 C495.038761,40.764011 494.739054,40.823311 494.494166,40.986511 C494.249279,41.149811 494.079275,41.403611 494.021555,41.692211 C493.963834,41.980811 494.023125,42.280611 494.186383,42.525411 C494.349641,42.770311 494.603494,42.940311 494.892097,42.998111 C500.436461,45.627611 506.472931,47.058911 512.607631,47.198411 C518.003831,47.280711 523.303931,45.766411 527.842131,42.845711 C531.575031,40.353911 534.633531,36.977211 536.744831,33.016611 C538.856131,29.056011 539.954731,24.634511 539.942731,20.146311 L539.942731,18.252911 C539.944031,18.094911 539.979731,17.939011 540.047431,17.796211 C540.115031,17.653411 540.213031,17.527011 540.334431,17.425911 L543.903631,14.444261 Z" id="Twitter-Icon"></path>
                    </g>
                </g>
            </g>
        </g>
    </g>
</svg>