<?xml version="1.0" encoding="UTF-8"?>
<svg width="60px" height="53px" viewBox="0 0 60 53" version="1.1" xmlns="http://www.w3.org/2000/svg" xmlns:xlink="http://www.w3.org/1999/xlink">
    <title>FB7B19A2-5649-4B2A-9B42-4674E1FA2A92</title>
    <g id="DAppNode-DAO" stroke="none" stroke-width="1" fill="none" fill-rule="evenodd">
        <g id="DAPPNode-DAO-Desktop-HD" transform="translate(-770.000000, -8734.000000)" fill="#2FBCB2" fill-rule="nonzero">
            <g id="Footer" transform="translate(0.000000, 7387.000000)">
                <g id="Testimonial" transform="translate(445.000000, 1347.000000)">
                    <path d="M379.375,52.5 C382.480469,52.5 385,49.9804687 385,46.875 L385,31.875 C385,28.7695312 382.480469,26.25 379.375,26.25 L370,26.25 L370,18.75 C370,14.6133041 373.363304,11.25 377.5,11.25 L378.4375,11.25 C379.996071,11.25 381.25,9.99607086 381.25,8.4375 L381.25,2.8125 C381.25,1.25392914 379.996071,0 378.4375,0 L377.5,0 C367.140579,0 358.75,8.39057922 358.75,18.75 L358.75,46.875 C358.75,49.9804687 361.269531,52.5 364.375,52.5 L379.375,52.5 Z M345.625,52.5 C348.730469,52.5 351.25,49.9804687 351.25,46.875 L351.25,31.875 C351.25,28.7695312 348.730469,26.25 345.625,26.25 L336.25,26.25 L336.25,18.75 C336.25,14.6133041 339.613304,11.25 343.75,11.25 L344.6875,11.25 C346.246071,11.25 347.5,9.99607086 347.5,8.4375 L347.5,2.8125 C347.5,1.25392914 346.246071,0 344.6875,0 L343.75,0 C333.390579,0 325,8.39057922 325,18.75 L325,46.875 C325,49.9804687 327.519531,52.5 330.625,52.5 L345.625,52.5 Z M379.375,52.5 C382.480469,52.5 385,49.9804687 385,46.875 L385,31.875 C385,28.7695312 382.480469,26.25 379.375,26.25 L370,26.25 L370,18.75 C370,14.6133041 373.363304,11.25 377.5,11.25 L378.4375,11.25 C379.996071,11.25 381.25,9.99607086 381.25,8.4375 L381.25,2.8125 C381.25,1.25392914 379.996071,0 378.4375,0 L377.5,0 C367.140579,0 358.75,8.39057922 358.75,18.75 L358.75,46.875 C358.75,49.9804687 361.269531,52.5 364.375,52.5 L379.375,52.5 Z M345.625,52.5 C348.730469,52.5 351.25,49.9804687 351.25,46.875 L351.25,31.875 C351.25,28.7695312 348.730469,26.25 345.625,26.25 L336.25,26.25 L336.25,18.75 C336.25,14.6133041 339.613304,11.25 343.75,11.25 L344.6875,11.25 C346.246071,11.25 347.5,9.99607086 347.5,8.4375 L347.5,2.8125 C347.5,1.25392914 346.246071,0 344.6875,0 L343.75,0 C333.390579,0 325,8.39057922 325,18.75 L325,46.875 C325,49.9804687 327.519531,52.5 330.625,52.5 L345.625,52.5 Z" id="quote"></path>
                </g>
            </g>
        </g>
    </g>
</svg>