<?xml version="1.0" encoding="UTF-8"?>
<svg width="53px" height="53px" viewBox="0 0 53 53" version="1.1" xmlns="http://www.w3.org/2000/svg" xmlns:xlink="http://www.w3.org/1999/xlink">
    <title>7A8AA83C-C1BB-4863-BD4B-188676681271</title>
    <g id="DAppNode-DAO" stroke="none" stroke-width="1" fill="none" fill-rule="evenodd">
        <g id="DAPPNode-DAO-Desktop-HD" transform="translate(-445.000000, -10010.000000)" fill="#FFFFFF" fill-rule="nonzero">
            <g id="Footer" transform="translate(0.000000, 7387.000000)">
                <g id="Bottom" transform="translate(0.000000, 1916.703170)">
                    <g id="Social-Icons" transform="translate(445.000000, 706.296830)">
                        <path d="M50.056248,0 L2.176358,0 C1.599148,0 1.045588,0.229294 0.63744,0.63744 C0.229294,1.04559 0,1.59915 0,2.17636 L0,50.0562 C0,50.6334 0.229294,51.187 0.63744,51.5951 C1.045588,52.0033 1.599148,52.2326 2.176358,52.2326 L50.056248,52.2326 C50.633448,52.2326 51.186948,52.0033 51.595148,51.5951 C52.003248,51.187 52.232548,50.6334 52.232548,50.0562 L52.232548,2.17636 C52.232548,1.59915 52.003248,1.04559 51.595148,0.63744 C51.186948,0.229294 50.633448,0 50.056248,0 L50.056248,0 Z M44.310648,12.7317 L41.350748,15.4086 C41.234548,15.5 41.145048,15.621 41.091448,15.7587 C41.037848,15.8965 41.022248,16.0462 41.046048,16.1921 L41.046048,36.824 C41.022248,36.9699 41.037848,37.1195 41.091448,37.2573 C41.145048,37.3951 41.234548,37.516 41.350748,37.6074 L44.288848,40.502 L44.288848,41.0896 L30.468948,41.0896 L30.468948,40.502 L32.993548,37.5422 C33.276448,37.2592 33.276448,37.1722 33.276448,36.7587 L33.276448,21.7636 L27.182648,38.9568 L26.529748,41.1331 L24.810448,41.1331 C19.043148,28.532 17.214948,24.114 15.452148,21.0889 L15.452148,36.3234 L19.021348,40.6761 L19.021348,41.2637 L8.705428,41.2637 L8.705428,40.6761 L12.187548,36.3234 L12.187548,16.7362 L9.488918,13.3846 L9.488918,12.2311 L19.870148,12.2311 L26.878048,29.0108 L32.645348,13.1887 C32.732848,12.8071 32.954648,12.4696 33.270348,12.2379 C33.585948,12.0062 33.974348,11.8956 34.364648,11.9264 L44.332348,11.9264 L44.310648,12.7317 Z" id="Medium-Icon"></path>
                    </g>
                </g>
            </g>
        </g>
    </g>
</svg>